<mxfile host="app.diagrams.net" agent="Mozilla/5.0 (Windows NT 10.0; Win64; x64; rv:136.0) Gecko/20100101 Firefox/136.0" version="26.1.1">
  <diagram name="Page-1" id="o6Hm1AHfrkM1vRj4lwk_">
    <mxGraphModel dx="187" dy="102" grid="1" gridSize="5" guides="1" tooltips="1" connect="1" arrows="1" fold="1" page="1" pageScale="1" pageWidth="595" pageHeight="842" math="0" shadow="0">
      <root>
        <mxCell id="0" />
        <mxCell id="1" parent="0" />
        <mxCell id="CmU8Y67noPRYYXNj49tf-1" value="" style="rounded=0;whiteSpace=wrap;html=1;fillColor=#D5E8D4;" vertex="1" parent="1">
          <mxGeometry x="10" y="135" width="80" height="5" as="geometry" />
        </mxCell>
        <mxCell id="CmU8Y67noPRYYXNj49tf-74" style="edgeStyle=orthogonalEdgeStyle;rounded=0;orthogonalLoop=1;jettySize=auto;html=1;entryX=0.5;entryY=1;entryDx=0;entryDy=0;endSize=1;endArrow=blockThin;endFill=1;" edge="1" parent="1" source="CmU8Y67noPRYYXNj49tf-2" target="CmU8Y67noPRYYXNj49tf-1">
          <mxGeometry relative="1" as="geometry" />
        </mxCell>
        <mxCell id="CmU8Y67noPRYYXNj49tf-2" value="" style="rounded=0;whiteSpace=wrap;html=1;fillColor=#FFF2CC;" vertex="1" parent="1">
          <mxGeometry x="20" y="160" width="60" height="5" as="geometry" />
        </mxCell>
        <mxCell id="CmU8Y67noPRYYXNj49tf-3" value="" style="rounded=0;whiteSpace=wrap;html=1;fillColor=#FFF2CC;" vertex="1" parent="1">
          <mxGeometry x="20" y="165" width="60" height="5" as="geometry" />
        </mxCell>
        <mxCell id="CmU8Y67noPRYYXNj49tf-73" style="edgeStyle=orthogonalEdgeStyle;rounded=0;orthogonalLoop=1;jettySize=auto;html=1;entryX=0.5;entryY=1;entryDx=0;entryDy=0;endSize=1;endArrow=blockThin;endFill=1;" edge="1" parent="1" source="CmU8Y67noPRYYXNj49tf-4" target="CmU8Y67noPRYYXNj49tf-3">
          <mxGeometry relative="1" as="geometry" />
        </mxCell>
        <mxCell id="CmU8Y67noPRYYXNj49tf-4" value="" style="rounded=0;whiteSpace=wrap;html=1;fillColor=#E1DFD2;" vertex="1" parent="1">
          <mxGeometry x="30" y="195" width="40" height="10" as="geometry" />
        </mxCell>
        <mxCell id="CmU8Y67noPRYYXNj49tf-5" value="" style="rounded=0;whiteSpace=wrap;html=1;fillColor=#E1DFD2;" vertex="1" parent="1">
          <mxGeometry x="30" y="205" width="40" height="10" as="geometry" />
        </mxCell>
        <mxCell id="CmU8Y67noPRYYXNj49tf-72" style="edgeStyle=orthogonalEdgeStyle;rounded=0;orthogonalLoop=1;jettySize=auto;html=1;entryX=0.5;entryY=1;entryDx=0;entryDy=0;endSize=1;endArrow=blockThin;endFill=1;" edge="1" parent="1" source="CmU8Y67noPRYYXNj49tf-6" target="CmU8Y67noPRYYXNj49tf-5">
          <mxGeometry relative="1" as="geometry" />
        </mxCell>
        <mxCell id="CmU8Y67noPRYYXNj49tf-6" value="" style="rounded=0;whiteSpace=wrap;html=1;fillColor=#A9C4EB;" vertex="1" parent="1">
          <mxGeometry x="40" y="235" width="20" height="15" as="geometry" />
        </mxCell>
        <mxCell id="CmU8Y67noPRYYXNj49tf-7" value="" style="rounded=0;whiteSpace=wrap;html=1;fillColor=#A9C4EB;" vertex="1" parent="1">
          <mxGeometry x="40" y="250" width="20" height="15" as="geometry" />
        </mxCell>
        <mxCell id="CmU8Y67noPRYYXNj49tf-71" style="edgeStyle=orthogonalEdgeStyle;rounded=0;orthogonalLoop=1;jettySize=auto;html=1;entryX=0.5;entryY=1;entryDx=0;entryDy=0;endSize=1;endArrow=blockThin;endFill=1;" edge="1" parent="1" source="CmU8Y67noPRYYXNj49tf-8" target="CmU8Y67noPRYYXNj49tf-7">
          <mxGeometry relative="1" as="geometry" />
        </mxCell>
        <mxCell id="CmU8Y67noPRYYXNj49tf-8" value="" style="rounded=0;whiteSpace=wrap;html=1;fillColor=#ACACAC;" vertex="1" parent="1">
          <mxGeometry x="45" y="290" width="10" height="20" as="geometry" />
        </mxCell>
        <mxCell id="CmU8Y67noPRYYXNj49tf-9" value="" style="rounded=0;whiteSpace=wrap;html=1;fillColor=#ACACAC;" vertex="1" parent="1">
          <mxGeometry x="45" y="310" width="10" height="20" as="geometry" />
        </mxCell>
        <mxCell id="CmU8Y67noPRYYXNj49tf-19" value="" style="rounded=0;whiteSpace=wrap;html=1;fillColor=#D5E8D4;" vertex="1" parent="1">
          <mxGeometry x="100" y="135" width="115" height="5" as="geometry" />
        </mxCell>
        <mxCell id="CmU8Y67noPRYYXNj49tf-78" style="edgeStyle=orthogonalEdgeStyle;rounded=0;orthogonalLoop=1;jettySize=auto;html=1;entryX=0.5;entryY=1;entryDx=0;entryDy=0;endSize=1;endArrow=blockThin;endFill=1;" edge="1" parent="1" source="CmU8Y67noPRYYXNj49tf-20" target="CmU8Y67noPRYYXNj49tf-19">
          <mxGeometry relative="1" as="geometry" />
        </mxCell>
        <mxCell id="CmU8Y67noPRYYXNj49tf-20" value="" style="rounded=0;whiteSpace=wrap;html=1;fillColor=#FFF2CC;" vertex="1" parent="1">
          <mxGeometry x="110" y="160" width="95" height="5" as="geometry" />
        </mxCell>
        <mxCell id="CmU8Y67noPRYYXNj49tf-21" value="" style="rounded=0;whiteSpace=wrap;html=1;fillColor=#FFF2CC;" vertex="1" parent="1">
          <mxGeometry x="110" y="165" width="95" height="5" as="geometry" />
        </mxCell>
        <mxCell id="CmU8Y67noPRYYXNj49tf-77" style="edgeStyle=orthogonalEdgeStyle;rounded=0;orthogonalLoop=1;jettySize=auto;html=1;entryX=0.5;entryY=1;entryDx=0;entryDy=0;endSize=1;endArrow=blockThin;endFill=1;" edge="1" parent="1" source="CmU8Y67noPRYYXNj49tf-22" target="CmU8Y67noPRYYXNj49tf-21">
          <mxGeometry relative="1" as="geometry" />
        </mxCell>
        <mxCell id="CmU8Y67noPRYYXNj49tf-22" value="" style="rounded=0;whiteSpace=wrap;html=1;fillColor=#E1DFD2;" vertex="1" parent="1">
          <mxGeometry x="120" y="195" width="75" height="10" as="geometry" />
        </mxCell>
        <mxCell id="CmU8Y67noPRYYXNj49tf-23" value="" style="rounded=0;whiteSpace=wrap;html=1;fillColor=#E1DFD2;" vertex="1" parent="1">
          <mxGeometry x="120" y="205" width="75" height="10" as="geometry" />
        </mxCell>
        <mxCell id="CmU8Y67noPRYYXNj49tf-76" style="edgeStyle=orthogonalEdgeStyle;rounded=0;orthogonalLoop=1;jettySize=auto;html=1;entryX=0.5;entryY=1;entryDx=0;entryDy=0;endSize=1;endArrow=blockThin;endFill=1;" edge="1" parent="1" source="CmU8Y67noPRYYXNj49tf-24" target="CmU8Y67noPRYYXNj49tf-23">
          <mxGeometry relative="1" as="geometry" />
        </mxCell>
        <mxCell id="CmU8Y67noPRYYXNj49tf-24" value="" style="rounded=0;whiteSpace=wrap;html=1;fillColor=#A9C4EB;" vertex="1" parent="1">
          <mxGeometry x="130" y="235" width="55" height="15" as="geometry" />
        </mxCell>
        <mxCell id="CmU8Y67noPRYYXNj49tf-25" value="" style="rounded=0;whiteSpace=wrap;html=1;fillColor=#A9C4EB;" vertex="1" parent="1">
          <mxGeometry x="130" y="250" width="55" height="15" as="geometry" />
        </mxCell>
        <mxCell id="CmU8Y67noPRYYXNj49tf-75" style="edgeStyle=orthogonalEdgeStyle;rounded=0;orthogonalLoop=1;jettySize=auto;html=1;entryX=0.5;entryY=1;entryDx=0;entryDy=0;endSize=1;endArrow=blockThin;endFill=1;" edge="1" parent="1" source="CmU8Y67noPRYYXNj49tf-26" target="CmU8Y67noPRYYXNj49tf-25">
          <mxGeometry relative="1" as="geometry" />
        </mxCell>
        <mxCell id="CmU8Y67noPRYYXNj49tf-26" value="" style="rounded=0;whiteSpace=wrap;html=1;fillColor=#ACACAC;" vertex="1" parent="1">
          <mxGeometry x="135" y="290" width="45" height="20" as="geometry" />
        </mxCell>
        <mxCell id="CmU8Y67noPRYYXNj49tf-27" value="" style="rounded=0;whiteSpace=wrap;html=1;fillColor=#ACACAC;" vertex="1" parent="1">
          <mxGeometry x="135" y="310" width="45" height="20" as="geometry" />
        </mxCell>
        <mxCell id="CmU8Y67noPRYYXNj49tf-29" value="" style="rounded=0;whiteSpace=wrap;html=1;fillColor=#D5E8D4;" vertex="1" parent="1">
          <mxGeometry x="225" y="10" width="80" height="5" as="geometry" />
        </mxCell>
        <mxCell id="CmU8Y67noPRYYXNj49tf-83" style="edgeStyle=orthogonalEdgeStyle;rounded=0;orthogonalLoop=1;jettySize=auto;html=1;entryX=0.5;entryY=1;entryDx=0;entryDy=0;endSize=1;endArrow=blockThin;endFill=1;" edge="1" parent="1" source="CmU8Y67noPRYYXNj49tf-30" target="CmU8Y67noPRYYXNj49tf-38">
          <mxGeometry relative="1" as="geometry" />
        </mxCell>
        <mxCell id="CmU8Y67noPRYYXNj49tf-30" value="" style="rounded=0;whiteSpace=wrap;html=1;fillColor=#FFF2CC;" vertex="1" parent="1">
          <mxGeometry x="235" y="45" width="60" height="5" as="geometry" />
        </mxCell>
        <mxCell id="CmU8Y67noPRYYXNj49tf-31" value="" style="rounded=0;whiteSpace=wrap;html=1;fillColor=#FFF2CC;" vertex="1" parent="1">
          <mxGeometry x="235" y="50" width="60" height="5" as="geometry" />
        </mxCell>
        <mxCell id="CmU8Y67noPRYYXNj49tf-82" style="edgeStyle=orthogonalEdgeStyle;rounded=0;orthogonalLoop=1;jettySize=auto;html=1;entryX=0.5;entryY=1;entryDx=0;entryDy=0;endSize=1;endArrow=blockThin;endFill=1;" edge="1" parent="1" source="CmU8Y67noPRYYXNj49tf-32" target="CmU8Y67noPRYYXNj49tf-40">
          <mxGeometry relative="1" as="geometry" />
        </mxCell>
        <mxCell id="CmU8Y67noPRYYXNj49tf-32" value="" style="rounded=0;whiteSpace=wrap;html=1;fillColor=#E1DFD2;" vertex="1" parent="1">
          <mxGeometry x="245" y="95" width="40" height="10" as="geometry" />
        </mxCell>
        <mxCell id="CmU8Y67noPRYYXNj49tf-33" value="" style="rounded=0;whiteSpace=wrap;html=1;fillColor=#E1DFD2;" vertex="1" parent="1">
          <mxGeometry x="245" y="105" width="40" height="10" as="geometry" />
        </mxCell>
        <mxCell id="CmU8Y67noPRYYXNj49tf-81" style="edgeStyle=orthogonalEdgeStyle;rounded=0;orthogonalLoop=1;jettySize=auto;html=1;entryX=0.5;entryY=1;entryDx=0;entryDy=0;endSize=1;endArrow=blockThin;endFill=1;" edge="1" parent="1" source="CmU8Y67noPRYYXNj49tf-34" target="CmU8Y67noPRYYXNj49tf-42">
          <mxGeometry relative="1" as="geometry" />
        </mxCell>
        <mxCell id="CmU8Y67noPRYYXNj49tf-34" value="" style="rounded=0;whiteSpace=wrap;html=1;fillColor=#A9C4EB;" vertex="1" parent="1">
          <mxGeometry x="255" y="162.5" width="20" height="15" as="geometry" />
        </mxCell>
        <mxCell id="CmU8Y67noPRYYXNj49tf-35" value="" style="rounded=0;whiteSpace=wrap;html=1;fillColor=#A9C4EB;" vertex="1" parent="1">
          <mxGeometry x="255" y="177.5" width="20" height="15" as="geometry" />
        </mxCell>
        <mxCell id="CmU8Y67noPRYYXNj49tf-80" style="edgeStyle=orthogonalEdgeStyle;rounded=0;orthogonalLoop=1;jettySize=auto;html=1;entryX=0.5;entryY=1;entryDx=0;entryDy=0;endSize=1;endArrow=blockThin;endFill=1;" edge="1" parent="1" source="CmU8Y67noPRYYXNj49tf-36" target="CmU8Y67noPRYYXNj49tf-44">
          <mxGeometry relative="1" as="geometry" />
        </mxCell>
        <mxCell id="CmU8Y67noPRYYXNj49tf-36" value="" style="rounded=0;whiteSpace=wrap;html=1;fillColor=#ACACAC;" vertex="1" parent="1">
          <mxGeometry x="260" y="250" width="10" height="20" as="geometry" />
        </mxCell>
        <mxCell id="CmU8Y67noPRYYXNj49tf-37" value="" style="rounded=0;whiteSpace=wrap;html=1;fillColor=#ACACAC;" vertex="1" parent="1">
          <mxGeometry x="260" y="270" width="10" height="20" as="geometry" />
        </mxCell>
        <mxCell id="CmU8Y67noPRYYXNj49tf-38" value="" style="rounded=0;whiteSpace=wrap;html=1;fillColor=#D5E8D4;" vertex="1" parent="1">
          <mxGeometry x="225" y="20" width="80" height="5" as="geometry" />
        </mxCell>
        <mxCell id="CmU8Y67noPRYYXNj49tf-39" value="" style="rounded=0;whiteSpace=wrap;html=1;fillColor=#FFF2CC;" vertex="1" parent="1">
          <mxGeometry x="235" y="60" width="60" height="5" as="geometry" />
        </mxCell>
        <mxCell id="CmU8Y67noPRYYXNj49tf-40" value="" style="rounded=0;whiteSpace=wrap;html=1;fillColor=#FFF2CC;" vertex="1" parent="1">
          <mxGeometry x="235" y="65" width="60" height="5" as="geometry" />
        </mxCell>
        <mxCell id="CmU8Y67noPRYYXNj49tf-41" value="" style="rounded=0;whiteSpace=wrap;html=1;fillColor=#E1DFD2;" vertex="1" parent="1">
          <mxGeometry x="245" y="120" width="40" height="10" as="geometry" />
        </mxCell>
        <mxCell id="CmU8Y67noPRYYXNj49tf-42" value="" style="rounded=0;whiteSpace=wrap;html=1;fillColor=#E1DFD2;" vertex="1" parent="1">
          <mxGeometry x="245" y="130" width="40" height="10" as="geometry" />
        </mxCell>
        <mxCell id="CmU8Y67noPRYYXNj49tf-43" value="" style="rounded=0;whiteSpace=wrap;html=1;fillColor=#A9C4EB;" vertex="1" parent="1">
          <mxGeometry x="255" y="197.5" width="20" height="15" as="geometry" />
        </mxCell>
        <mxCell id="CmU8Y67noPRYYXNj49tf-44" value="" style="rounded=0;whiteSpace=wrap;html=1;fillColor=#A9C4EB;" vertex="1" parent="1">
          <mxGeometry x="255" y="212.5" width="20" height="15" as="geometry" />
        </mxCell>
        <mxCell id="CmU8Y67noPRYYXNj49tf-45" value="" style="rounded=0;whiteSpace=wrap;html=1;fillColor=#ACACAC;" vertex="1" parent="1">
          <mxGeometry x="260" y="295" width="10" height="20" as="geometry" />
        </mxCell>
        <mxCell id="CmU8Y67noPRYYXNj49tf-46" value="" style="rounded=0;whiteSpace=wrap;html=1;fillColor=#ACACAC;" vertex="1" parent="1">
          <mxGeometry x="260" y="315" width="10" height="20" as="geometry" />
        </mxCell>
        <mxCell id="CmU8Y67noPRYYXNj49tf-47" value="" style="rounded=0;whiteSpace=wrap;html=1;fillColor=#D5E8D4;" vertex="1" parent="1">
          <mxGeometry x="320" y="120" width="80" height="5" as="geometry" />
        </mxCell>
        <mxCell id="CmU8Y67noPRYYXNj49tf-87" style="edgeStyle=orthogonalEdgeStyle;rounded=0;orthogonalLoop=1;jettySize=auto;html=1;entryX=0.5;entryY=1;entryDx=0;entryDy=0;endSize=1;endArrow=blockThin;endFill=1;" edge="1" parent="1" source="CmU8Y67noPRYYXNj49tf-48" target="CmU8Y67noPRYYXNj49tf-47">
          <mxGeometry relative="1" as="geometry" />
        </mxCell>
        <mxCell id="CmU8Y67noPRYYXNj49tf-48" value="" style="rounded=0;whiteSpace=wrap;html=1;fillColor=#FFF2CC;" vertex="1" parent="1">
          <mxGeometry x="330" y="145" width="60" height="5" as="geometry" />
        </mxCell>
        <mxCell id="CmU8Y67noPRYYXNj49tf-49" value="" style="rounded=0;whiteSpace=wrap;html=1;fillColor=#FFF2CC;" vertex="1" parent="1">
          <mxGeometry x="330" y="150" width="60" height="5" as="geometry" />
        </mxCell>
        <mxCell id="CmU8Y67noPRYYXNj49tf-86" style="edgeStyle=orthogonalEdgeStyle;rounded=0;orthogonalLoop=1;jettySize=auto;html=1;entryX=0.5;entryY=1;entryDx=0;entryDy=0;endSize=1;endArrow=blockThin;endFill=1;" edge="1" parent="1" source="CmU8Y67noPRYYXNj49tf-50" target="CmU8Y67noPRYYXNj49tf-49">
          <mxGeometry relative="1" as="geometry" />
        </mxCell>
        <mxCell id="CmU8Y67noPRYYXNj49tf-50" value="" style="rounded=0;whiteSpace=wrap;html=1;fillColor=#E1DFD2;" vertex="1" parent="1">
          <mxGeometry x="340" y="180" width="40" height="10" as="geometry" />
        </mxCell>
        <mxCell id="CmU8Y67noPRYYXNj49tf-51" value="" style="rounded=0;whiteSpace=wrap;html=1;fillColor=#E1DFD2;" vertex="1" parent="1">
          <mxGeometry x="340" y="190" width="40" height="10" as="geometry" />
        </mxCell>
        <mxCell id="CmU8Y67noPRYYXNj49tf-85" style="edgeStyle=orthogonalEdgeStyle;rounded=0;orthogonalLoop=1;jettySize=auto;html=1;entryX=0.5;entryY=1;entryDx=0;entryDy=0;endSize=1;endArrow=blockThin;endFill=1;" edge="1" parent="1" source="CmU8Y67noPRYYXNj49tf-52" target="CmU8Y67noPRYYXNj49tf-51">
          <mxGeometry relative="1" as="geometry" />
        </mxCell>
        <mxCell id="CmU8Y67noPRYYXNj49tf-52" value="" style="rounded=0;whiteSpace=wrap;html=1;fillColor=#A9C4EB;" vertex="1" parent="1">
          <mxGeometry x="350" y="220" width="20" height="15" as="geometry" />
        </mxCell>
        <mxCell id="CmU8Y67noPRYYXNj49tf-53" value="" style="rounded=0;whiteSpace=wrap;html=1;fillColor=#A9C4EB;" vertex="1" parent="1">
          <mxGeometry x="350" y="235" width="20" height="15" as="geometry" />
        </mxCell>
        <mxCell id="CmU8Y67noPRYYXNj49tf-84" style="edgeStyle=orthogonalEdgeStyle;rounded=0;orthogonalLoop=1;jettySize=auto;html=1;entryX=0.5;entryY=1;entryDx=0;entryDy=0;endSize=1;endArrow=blockThin;endFill=1;" edge="1" parent="1" source="CmU8Y67noPRYYXNj49tf-54" target="CmU8Y67noPRYYXNj49tf-53">
          <mxGeometry relative="1" as="geometry" />
        </mxCell>
        <mxCell id="CmU8Y67noPRYYXNj49tf-54" value="" style="rounded=0;whiteSpace=wrap;html=1;fillColor=#ACACAC;" vertex="1" parent="1">
          <mxGeometry x="355" y="275" width="10" height="30" as="geometry" />
        </mxCell>
        <mxCell id="CmU8Y67noPRYYXNj49tf-55" value="" style="rounded=0;whiteSpace=wrap;html=1;fillColor=#ACACAC;" vertex="1" parent="1">
          <mxGeometry x="355" y="305" width="10" height="30" as="geometry" />
        </mxCell>
        <mxCell id="CmU8Y67noPRYYXNj49tf-56" value="" style="rounded=0;whiteSpace=wrap;html=1;fillColor=#D5E8D4;" vertex="1" parent="1">
          <mxGeometry x="410" y="50" width="90" height="5" as="geometry" />
        </mxCell>
        <mxCell id="CmU8Y67noPRYYXNj49tf-57" value="" style="rounded=0;whiteSpace=wrap;html=1;fillColor=#FFF2CC;" vertex="1" parent="1">
          <mxGeometry x="420" y="90" width="70" height="5" as="geometry" />
        </mxCell>
        <mxCell id="CmU8Y67noPRYYXNj49tf-58" value="" style="rounded=0;whiteSpace=wrap;html=1;fillColor=#FFF2CC;" vertex="1" parent="1">
          <mxGeometry x="420" y="95" width="70" height="5" as="geometry" />
        </mxCell>
        <mxCell id="CmU8Y67noPRYYXNj49tf-59" value="" style="rounded=0;whiteSpace=wrap;html=1;fillColor=#E1DFD2;" vertex="1" parent="1">
          <mxGeometry x="430" y="135" width="50" height="10" as="geometry" />
        </mxCell>
        <mxCell id="CmU8Y67noPRYYXNj49tf-60" value="" style="rounded=0;whiteSpace=wrap;html=1;fillColor=#E1DFD2;" vertex="1" parent="1">
          <mxGeometry x="430" y="145" width="50" height="10" as="geometry" />
        </mxCell>
        <mxCell id="CmU8Y67noPRYYXNj49tf-90" style="edgeStyle=orthogonalEdgeStyle;rounded=0;orthogonalLoop=1;jettySize=auto;html=1;entryX=0.5;entryY=1;entryDx=0;entryDy=0;endSize=1;endArrow=blockThin;endFill=1;" edge="1" parent="1" source="CmU8Y67noPRYYXNj49tf-61" target="CmU8Y67noPRYYXNj49tf-60">
          <mxGeometry relative="1" as="geometry" />
        </mxCell>
        <mxCell id="CmU8Y67noPRYYXNj49tf-61" value="" style="rounded=0;whiteSpace=wrap;html=1;fillColor=#A9C4EB;" vertex="1" parent="1">
          <mxGeometry x="440" y="180" width="30" height="15" as="geometry" />
        </mxCell>
        <mxCell id="CmU8Y67noPRYYXNj49tf-62" value="" style="rounded=0;whiteSpace=wrap;html=1;fillColor=#A9C4EB;" vertex="1" parent="1">
          <mxGeometry x="440" y="215" width="30" height="15" as="geometry" />
        </mxCell>
        <mxCell id="CmU8Y67noPRYYXNj49tf-63" value="" style="rounded=0;whiteSpace=wrap;html=1;fillColor=#ACACAC;" vertex="1" parent="1">
          <mxGeometry x="445" y="285" width="20" height="25" as="geometry" />
        </mxCell>
        <mxCell id="CmU8Y67noPRYYXNj49tf-64" value="" style="rounded=0;whiteSpace=wrap;html=1;fillColor=#ACACAC;" vertex="1" parent="1">
          <mxGeometry x="445" y="310" width="20" height="25" as="geometry" />
        </mxCell>
        <mxCell id="CmU8Y67noPRYYXNj49tf-91" style="edgeStyle=orthogonalEdgeStyle;rounded=0;orthogonalLoop=1;jettySize=auto;html=1;entryX=0.5;entryY=1;entryDx=0;entryDy=0;endSize=1;endArrow=blockThin;endFill=1;" edge="1" parent="1" source="CmU8Y67noPRYYXNj49tf-65" target="CmU8Y67noPRYYXNj49tf-62">
          <mxGeometry relative="1" as="geometry" />
        </mxCell>
        <mxCell id="CmU8Y67noPRYYXNj49tf-65" value="" style="rounded=0;whiteSpace=wrap;html=1;fillColor=#ACACAC;" vertex="1" parent="1">
          <mxGeometry x="445" y="255" width="20" height="25" as="geometry" />
        </mxCell>
        <mxCell id="CmU8Y67noPRYYXNj49tf-66" value="" style="rounded=0;whiteSpace=wrap;html=1;fillColor=#A9C4EB;" vertex="1" parent="1">
          <mxGeometry x="440" y="200" width="30" height="15" as="geometry" />
        </mxCell>
        <mxCell id="CmU8Y67noPRYYXNj49tf-89" style="edgeStyle=orthogonalEdgeStyle;rounded=0;orthogonalLoop=1;jettySize=auto;html=1;entryX=0.5;entryY=1;entryDx=0;entryDy=0;endSize=1;endArrow=blockThin;endFill=1;" edge="1" parent="1" source="CmU8Y67noPRYYXNj49tf-67" target="CmU8Y67noPRYYXNj49tf-58">
          <mxGeometry relative="1" as="geometry" />
        </mxCell>
        <mxCell id="CmU8Y67noPRYYXNj49tf-67" value="" style="rounded=0;whiteSpace=wrap;html=1;fillColor=#E1DFD2;" vertex="1" parent="1">
          <mxGeometry x="430" y="120" width="50" height="10" as="geometry" />
        </mxCell>
        <mxCell id="CmU8Y67noPRYYXNj49tf-88" style="edgeStyle=orthogonalEdgeStyle;rounded=0;orthogonalLoop=1;jettySize=auto;html=1;entryX=0.5;entryY=1;entryDx=0;entryDy=0;endSize=1;endArrow=blockThin;endFill=1;" edge="1" parent="1" source="CmU8Y67noPRYYXNj49tf-68" target="CmU8Y67noPRYYXNj49tf-56">
          <mxGeometry relative="1" as="geometry" />
        </mxCell>
        <mxCell id="CmU8Y67noPRYYXNj49tf-68" value="" style="rounded=0;whiteSpace=wrap;html=1;fillColor=#FFF2CC;" vertex="1" parent="1">
          <mxGeometry x="420" y="80" width="70" height="5" as="geometry" />
        </mxCell>
        <mxCell id="CmU8Y67noPRYYXNj49tf-70" value="" style="rounded=0;whiteSpace=wrap;html=1;fillColor=#D5E8D4;" vertex="1" parent="1">
          <mxGeometry x="410" y="40" width="90" height="5" as="geometry" />
        </mxCell>
        <mxCell id="CmU8Y67noPRYYXNj49tf-92" value="" style="endArrow=blockThin;html=1;rounded=0;endSize=1;endFill=1;" edge="1" parent="1">
          <mxGeometry width="50" height="50" relative="1" as="geometry">
            <mxPoint x="264.92" y="295" as="sourcePoint" />
            <mxPoint x="264.92" y="290" as="targetPoint" />
          </mxGeometry>
        </mxCell>
        <mxCell id="CmU8Y67noPRYYXNj49tf-94" value="" style="endArrow=blockThin;html=1;rounded=0;endSize=1;endFill=1;" edge="1" parent="1">
          <mxGeometry width="50" height="50" relative="1" as="geometry">
            <mxPoint x="264.98" y="197.5" as="sourcePoint" />
            <mxPoint x="264.98" y="192.5" as="targetPoint" />
          </mxGeometry>
        </mxCell>
        <mxCell id="CmU8Y67noPRYYXNj49tf-95" value="" style="endArrow=blockThin;html=1;rounded=0;endSize=1;endFill=1;" edge="1" parent="1">
          <mxGeometry width="50" height="50" relative="1" as="geometry">
            <mxPoint x="264.89000000000004" y="120" as="sourcePoint" />
            <mxPoint x="264.89000000000004" y="115" as="targetPoint" />
          </mxGeometry>
        </mxCell>
        <mxCell id="CmU8Y67noPRYYXNj49tf-96" value="" style="endArrow=blockThin;html=1;rounded=0;endSize=1;endFill=1;" edge="1" parent="1">
          <mxGeometry width="50" height="50" relative="1" as="geometry">
            <mxPoint x="264.96000000000004" y="60" as="sourcePoint" />
            <mxPoint x="264.96000000000004" y="55" as="targetPoint" />
          </mxGeometry>
        </mxCell>
        <mxCell id="CmU8Y67noPRYYXNj49tf-98" value="" style="endArrow=blockThin;html=1;rounded=0;endSize=1;endFill=1;" edge="1" parent="1">
          <mxGeometry width="50" height="50" relative="1" as="geometry">
            <mxPoint x="264.96000000000004" y="20" as="sourcePoint" />
            <mxPoint x="264.96000000000004" y="15" as="targetPoint" />
          </mxGeometry>
        </mxCell>
        <mxCell id="CmU8Y67noPRYYXNj49tf-101" value="" style="endArrow=blockThin;html=1;rounded=0;endSize=1;endFill=1;" edge="1" parent="1">
          <mxGeometry width="50" height="50" relative="1" as="geometry">
            <mxPoint x="454.85" y="50" as="sourcePoint" />
            <mxPoint x="454.85" y="45" as="targetPoint" />
          </mxGeometry>
        </mxCell>
        <mxCell id="CmU8Y67noPRYYXNj49tf-102" value="" style="endArrow=blockThin;html=1;rounded=0;endSize=1;endFill=1;" edge="1" parent="1">
          <mxGeometry width="50" height="50" relative="1" as="geometry">
            <mxPoint x="454.95000000000005" y="90" as="sourcePoint" />
            <mxPoint x="454.95000000000005" y="85" as="targetPoint" />
          </mxGeometry>
        </mxCell>
        <mxCell id="CmU8Y67noPRYYXNj49tf-103" value="" style="endArrow=blockThin;html=1;rounded=0;endSize=1;endFill=1;" edge="1" parent="1">
          <mxGeometry width="50" height="50" relative="1" as="geometry">
            <mxPoint x="454.95000000000005" y="135" as="sourcePoint" />
            <mxPoint x="454.95000000000005" y="130" as="targetPoint" />
          </mxGeometry>
        </mxCell>
        <mxCell id="CmU8Y67noPRYYXNj49tf-104" value="" style="endArrow=blockThin;html=1;rounded=0;endSize=1;endFill=1;" edge="1" parent="1">
          <mxGeometry width="50" height="50" relative="1" as="geometry">
            <mxPoint x="454.95000000000005" y="200" as="sourcePoint" />
            <mxPoint x="454.95000000000005" y="195" as="targetPoint" />
          </mxGeometry>
        </mxCell>
        <mxCell id="CmU8Y67noPRYYXNj49tf-105" value="" style="endArrow=blockThin;html=1;rounded=0;endSize=1;endFill=1;" edge="1" parent="1">
          <mxGeometry width="50" height="50" relative="1" as="geometry">
            <mxPoint x="454.95000000000005" y="285" as="sourcePoint" />
            <mxPoint x="454.95000000000005" y="280" as="targetPoint" />
          </mxGeometry>
        </mxCell>
      </root>
    </mxGraphModel>
  </diagram>
</mxfile>
